<?xml version="1.0" encoding="utf-8"?>
<svg xmlns="http://www.w3.org/2000/svg" viewBox="69.28 58.283 343.845 368.038" xmlns:bx="https://boxy-svg.com">
  <defs>
    <bx:export>
      <bx:file format="png" href="#object-0" path="Sem título.png"/>
    </bx:export>
  </defs>
  <path d="M 198.492 146.625 L 332.555 170.966 L 323.942 250.731 L 173.776 218.526 L 198.492 146.625 Z" style="fill: rgb(93, 142, 44);"/>
  <path d="M 182.033 82.108 L 372.5 111.494 L 369.926 147.44 L 338.853 140.366 L 334.628 116.48 L 273.499 107.242 L 214.953 97.68 L 202.338 117.953 L 170.415 113.891 Z M 351.829 400.144 L 86.255 344.136 L 108.454 283.404 L 146.712 293.224 L 144.858 326.877 L 205.578 340.989 L 305.5 363.118 L 317.905 329.754 L 356.522 334.61 Z M 169.981 115.078 L 202.893 119.11 L 215.546 99.202 L 272.697 108.359 L 333.903 117.774 L 338.147 141.702 L 369.836 148.696 L 356.61 333.389 L 317.395 328.576 L 304.967 361.574 L 206.423 339.904 L 145.633 325.613 L 147.47 291.917 L 108.884 282.226 Z M 202.572 132.719 L 334.136 156.031 L 315.589 139.359 L 222.991 123.704 Z M 178.325 219.296 L 321.953 247.697 L 328.603 174.147 L 197.673 150.5 Z M 193.99 140.022 L 165.986 221.893 L 327.035 255.603 L 339.355 164.345 Z M 196.004 143.4 L 335.993 166.825 L 324.493 252.006 L 169.924 219.653 Z M 184.657 261.478 L 201.92 264.711 L 203.503 256.262 L 183.324 252.058 Z M 237.107 263.568 C 230.725 263.568 225.551 268.742 225.551 275.124 C 225.551 281.506 230.725 286.68 237.107 286.68 C 243.489 286.68 248.663 281.506 248.663 275.124 C 248.663 268.742 243.489 263.568 237.107 263.568 Z M 183.035 279.001 L 200.299 282.235 L 201.882 273.786 L 181.703 269.581 Z M 179.428 267.633 L 181.034 280.372 L 202.301 284.355 L 204.451 272.875 Z M 180.594 268.9 L 203.289 273.652 L 201.502 283.188 L 181.936 279.523 Z M 289.315 290.129 L 268.548 286.13 L 266.965 294.579 L 284.626 298.127 Z M 285.463 299.78 L 292.224 288.938 L 266.546 284.007 L 264.395 295.492 Z M 284.982 298.662 L 265.559 294.709 L 267.344 285.178 L 290.604 289.646 Z M 293.069 273.765 L 272.301 269.765 L 270.718 278.214 L 288.379 281.762 Z M 289.216 283.416 L 295.977 272.574 L 270.299 267.643 L 268.148 279.128 Z M 288.735 282.298 L 269.312 278.345 L 271.097 268.814 L 294.357 273.282 Z M 170.188 233.627 L 168.765 289.704 L 298.494 316.915 L 321.246 263.732 Z M 173.096 237.265 L 317.034 265.952 L 296.704 313.475 L 171.827 287.282 Z M 247.471 264.536 C 244.788 261.854 240.982 260.151 236.883 260.151 C 232.784 260.151 228.978 261.854 226.295 264.536 C 223.613 267.219 221.91 271.025 221.91 275.124 C 221.91 279.223 223.613 283.029 226.295 285.712 C 228.978 288.394 232.784 290.097 236.883 290.097 C 240.982 290.097 244.788 288.394 247.471 285.712 C 250.153 283.029 251.856 279.223 251.856 275.124 C 251.856 271.025 250.153 267.219 247.471 264.536 Z M 250.856 275.124 C 250.856 279.018 249.319 282.448 246.763 285.004 C 244.207 287.56 240.777 289.097 236.883 289.097 C 232.989 289.097 229.559 287.56 227.003 285.004 C 224.447 282.448 222.91 279.018 222.91 275.124 C 222.91 271.23 224.447 267.8 227.003 265.244 C 229.559 262.688 232.989 261.151 236.883 261.151 C 240.777 261.151 244.207 262.688 246.763 265.244 C 249.319 267.8 250.856 271.23 250.856 275.124 Z M 181.049 250.109 L 182.655 262.848 L 203.922 266.831 L 206.072 255.351 Z M 182.215 251.376 L 204.91 256.128 L 203.123 265.664 L 183.557 261.999 Z" style="" id="object-0"/>
  <path d="M 194.997 141.711 L 337.674 165.585 L 325.764 253.804 L 167.955 220.773 L 194.997 141.711 Z" style="fill: none; stroke-width: 3px;"/>
  <path d="M 171.642 235.446 L 319.14 264.842 L 297.599 315.195 L 170.296 288.493 L 171.642 235.446 Z" style="fill: none; stroke-width: 3px;"/>
  <ellipse style="fill: none;" cx="236.883" cy="275.124" rx="14.473" ry="14.473"/>
  <path d="M 180.392 252.89 L 204.763 253.409 L 204.763 264.1 L 183.991 264.1 L 180.392 252.89 Z" style="fill: none;" transform="matrix(0.98290896, 0.184094, -0.184094, 0.98290896, 50.87871816, -31.03432265)"/>
  <path d="M 178.771 270.414 L 203.142 270.933 L 203.142 281.624 L 182.37 281.624 L 178.771 270.414 Z" style="fill: none; stroke-width: 1;" transform="matrix(0.98290896, 0.184094, -0.184094, 0.98290896, 54.07707695, -30.43640326)"/>
  <path d="M 273.172 270.572 L 293.83 270.895 L 293.83 281.586 L 268.914 281.471 L 273.172 270.572 Z" style="fill: none; stroke-width: 1;" transform="matrix(-0.98290896, -0.184094, 0.184094, -0.98290896, 507.66795893, 599.0941701)"/>
  <path d="M 269.419 286.936 L 290.077 287.259 L 290.077 297.95 L 265.161 297.835 L 269.419 286.936 Z" style="fill: none; stroke-width: 1;" transform="matrix(-0.98290896, -0.184094, 0.184094, -0.98290896, 497.21360379, 630.85158882)"/>
</svg>